<?xml version="1.0" standalone="no"?>
<!DOCTYPE svg PUBLIC "-//W3C//DTD SVG 20010904//EN"
 "http://www.w3.org/TR/2001/REC-SVG-20010904/DTD/svg10.dtd">
<svg version="1.0" xmlns="http://www.w3.org/2000/svg"
 width="760.000000pt" height="760.000000pt" viewBox="0 0 760.000000 760.000000"
 preserveAspectRatio="xMidYMid meet">
<metadata>
Created by potrace 1.14, written by Peter Selinger 2001-2017
</metadata>
<g transform="translate(0.000000,760.000000) scale(0.100000,-0.100000)"
fill="#000000" stroke="none">
<path d="M946 7493 c-2 -10 -8 -43 -11 -73 -4 -30 -9 -68 -11 -85 -2 -16 -6
-52 -10 -80 -4 -27 -8 -61 -9 -75 -2 -14 -6 -47 -10 -75 -3 -27 -8 -68 -10
-90 -4 -36 -8 -61 -20 -145 -2 -14 -7 -45 -10 -70 -3 -25 -8 -61 -10 -80 -3
-19 -7 -60 -10 -90 -3 -30 -10 -79 -15 -109 -17 -91 -14 -106 18 -108 26 -2
41 -4 102 -17 41 -9 73 -15 105 -21 17 -3 41 -7 55 -10 14 -3 41 -8 60 -11 19
-3 43 -7 52 -10 28 -8 71 -16 155 -29 11 -2 29 -6 40 -9 10 -3 35 -8 57 -12
21 -3 48 -8 60 -10 11 -3 66 -13 121 -24 55 -11 109 -21 120 -23 11 -3 36 -7
55 -11 19 -3 46 -8 60 -11 14 -3 37 -7 51 -10 14 -3 122 -23 240 -46 118 -22
225 -43 239 -45 14 -2 48 -9 75 -15 28 -6 61 -13 75 -15 41 -7 243 -46 340
-65 30 -5 64 -12 75 -13 11 -2 29 -6 40 -9 11 -4 36 -9 55 -11 20 -3 47 -7 60
-10 14 -3 39 -8 55 -11 17 -3 41 -8 55 -11 14 -3 75 -14 135 -26 61 -11 119
-22 130 -25 11 -2 34 -6 50 -9 17 -3 37 -6 45 -8 80 -16 98 -20 115 -22 11 -1
20 -3 20 -4 0 -1 11 -3 25 -6 14 -2 48 -9 76 -14 28 -6 64 -13 80 -16 16 -2
40 -7 54 -9 63 -13 77 -16 105 -20 17 -3 73 -14 125 -25 52 -10 112 -22 134
-25 21 -3 41 -7 45 -10 4 -2 29 -6 55 -10 27 -3 52 -7 56 -10 4 -3 23 -7 42
-9 18 -3 45 -7 58 -10 14 -3 36 -8 50 -10 77 -14 122 -24 127 -29 3 -3 -1 -12
-9 -20 -8 -8 -30 -33 -49 -57 -18 -23 -41 -51 -51 -61 -9 -11 -31 -38 -50 -61
-18 -23 -38 -46 -43 -52 -9 -10 -287 -343 -325 -390 -8 -10 -20 -23 -25 -30
-10 -11 -143 -169 -177 -211 -45 -55 -216 -260 -233 -279 -5 -6 -28 -34 -50
-61 -22 -28 -44 -55 -50 -61 -5 -6 -28 -32 -50 -59 -102 -124 -134 -159 -147
-161 -7 -1 -38 -7 -68 -14 -30 -6 -68 -13 -85 -16 -16 -3 -48 -9 -70 -15 -22
-5 -53 -12 -69 -14 -15 -2 -35 -7 -45 -9 -9 -3 -32 -8 -51 -11 -35 -5 -64 -11
-110 -21 -14 -3 -36 -7 -50 -10 -14 -2 -45 -9 -70 -14 -71 -16 -93 -21 -125
-25 -16 -3 -73 -14 -125 -25 -52 -11 -111 -23 -130 -26 -47 -8 -65 -12 -65
-14 0 -1 -11 -3 -25 -4 -14 -2 -34 -6 -45 -9 -11 -4 -37 -9 -59 -13 -49 -7
-51 -8 -174 -34 -57 -12 -112 -22 -123 -23 -10 -1 -19 -5 -19 -10 0 -4 -3 -6
-7 -4 -5 3 -51 -4 -103 -14 -52 -11 -106 -22 -120 -24 -14 -2 -47 -9 -75 -15
-27 -6 -61 -13 -75 -15 -14 -3 -36 -7 -50 -10 -14 -3 -36 -8 -50 -11 -14 -2
-36 -7 -50 -9 -26 -6 -70 -14 -105 -20 -11 -2 -42 -9 -70 -15 -27 -6 -66 -13
-85 -16 -41 -7 -46 -8 -85 -19 -16 -5 -39 -9 -50 -10 -11 -1 -31 -5 -45 -8
-14 -4 -37 -9 -53 -12 -15 -3 -39 -7 -55 -10 -15 -3 -47 -10 -72 -16 -25 -5
-59 -12 -75 -14 -17 -2 -30 -4 -30 -5 0 -2 -19 -6 -70 -15 -22 -3 -47 -8 -55
-10 -8 -2 -19 -4 -23 -4 -5 -1 -6 -16 -3 -33 15 -85 26 -147 38 -198 15 -69
13 -58 22 -105 4 -22 10 -51 13 -65 2 -14 20 -104 40 -200 19 -96 37 -186 39
-200 3 -14 9 -41 13 -60 5 -19 9 -42 10 -50 0 -21 60 -302 65 -307 2 -2 50 6
107 17 57 12 113 24 124 26 61 12 173 34 195 38 14 3 36 8 50 11 14 3 36 7 50
10 14 2 93 18 175 35 83 17 161 33 175 35 14 3 36 7 50 10 14 3 48 9 75 15 28
5 61 12 75 15 14 3 39 8 55 10 17 3 37 8 45 10 8 2 30 7 48 10 18 3 64 12 103
20 39 8 75 15 80 15 8 0 -61 -91 -91 -120 -5 -5 -73 -87 -110 -133 -8 -11 -26
-32 -40 -48 -14 -16 -36 -43 -50 -60 -14 -17 -34 -41 -45 -53 -11 -13 -34 -40
-52 -62 -17 -21 -128 -154 -245 -295 -117 -140 -231 -277 -253 -304 -22 -26
-45 -53 -50 -59 -6 -6 -41 -49 -79 -96 -38 -47 -74 -89 -80 -95 -6 -5 -38 -44
-71 -85 -33 -41 -65 -79 -71 -85 -5 -5 -26 -30 -46 -55 -20 -25 -48 -58 -62
-74 -14 -16 -26 -32 -26 -36 0 -7 77 -80 160 -150 29 -25 64 -56 79 -70 14
-14 62 -56 106 -95 44 -38 85 -74 91 -80 35 -32 164 -147 192 -171 19 -16 51
-45 72 -64 20 -19 53 -48 72 -65 19 -16 70 -61 113 -100 142 -127 138 -124
149 -111 6 6 58 67 114 136 57 69 121 145 142 170 21 25 51 61 67 80 15 19 38
46 50 60 11 14 71 86 133 160 61 74 124 149 138 166 15 16 56 66 92 110 35 43
69 84 75 90 5 6 28 33 50 60 22 26 56 67 75 89 19 23 53 64 75 90 22 27 47 56
55 65 9 9 29 33 45 55 17 22 37 47 45 56 8 9 24 27 35 40 37 45 186 224 223
268 20 24 48 57 62 74 14 16 52 62 84 101 32 39 63 72 67 74 5 2 9 8 9 13 0 6
10 20 23 33 12 13 29 32 37 42 35 43 165 199 170 204 3 3 34 41 70 85 35 44
69 85 75 91 17 19 191 227 208 249 4 5 21 26 38 45 17 19 43 51 58 70 14 19
31 40 37 45 5 6 43 49 82 96 75 90 70 87 171 105 13 3 54 12 90 20 36 8 82 17
101 20 58 8 79 12 87 17 5 3 29 8 55 11 26 4 53 9 60 11 7 2 24 6 38 9 14 2
59 11 100 19 107 23 121 25 155 32 17 3 41 8 55 11 14 3 36 8 50 10 14 3 171
34 350 70 179 36 334 67 345 70 11 2 54 10 95 19 94 19 130 26 155 30 11 2 20
4 20 5 0 1 12 3 26 5 31 4 276 54 303 62 15 4 17 11 11 37 -4 17 -8 40 -10 51
-2 11 -11 56 -21 100 -9 44 -18 89 -19 100 -2 11 -4 22 -5 25 -1 3 -3 10 -4
15 -4 26 -19 102 -22 115 -2 8 -15 76 -30 150 -14 74 -28 142 -31 150 -3 8 -7
28 -9 44 -2 16 -6 39 -9 50 -9 40 -36 171 -40 191 -29 169 -36 192 -58 189
-12 -1 -22 -3 -22 -4 0 -2 -16 -5 -60 -13 -16 -3 -52 -10 -80 -16 -52 -11 -64
-13 -130 -26 -22 -5 -44 -9 -50 -10 -5 -2 -27 -5 -47 -9 -21 -3 -59 -11 -85
-17 -27 -6 -61 -13 -78 -16 -16 -2 -48 -8 -70 -13 -22 -5 -41 -8 -42 -6 -2 1
5 11 15 22 10 10 51 60 92 109 40 50 90 108 109 130 20 22 50 58 66 79 17 21
35 44 40 50 6 6 33 38 60 71 28 33 55 65 60 71 6 7 26 31 44 54 19 23 40 48
45 54 18 19 99 116 172 206 37 47 73 90 79 96 5 6 24 29 40 50 46 58 89 109
98 112 4 2 7 8 7 13 0 5 8 17 18 27 19 20 32 36 242 292 83 102 162 197 176
212 41 45 61 35 -231 113 -93 26 -178 48 -188 50 -10 2 -52 13 -94 25 -69 19
-349 78 -480 101 -29 5 -79 14 -110 20 -56 11 -79 15 -133 23 -14 3 -25 5 -25
6 0 1 -11 3 -25 6 -14 2 -56 11 -95 19 -79 16 -128 25 -165 30 -14 2 -36 6
-50 10 -14 3 -36 7 -50 9 -14 2 -36 6 -50 10 -32 8 -75 15 -124 22 -22 3 -43
7 -48 10 -4 3 -22 7 -40 9 -18 3 -44 7 -58 10 -14 3 -36 8 -50 11 -14 2 -50
10 -80 16 -30 6 -64 12 -75 14 -11 2 -31 5 -45 9 -14 3 -41 8 -60 11 -19 3
-43 7 -53 10 -10 3 -30 7 -45 9 -15 3 -38 7 -52 10 -14 3 -50 9 -80 15 -30 6
-66 12 -80 15 -14 3 -38 8 -55 11 -16 2 -86 16 -155 30 -69 14 -143 27 -165
30 -22 3 -47 8 -55 10 -8 3 -26 8 -40 10 -24 5 -320 60 -370 70 -14 2 -36 7
-50 9 -14 3 -36 7 -50 10 -26 5 -111 22 -145 29 -28 5 -104 18 -110 17 -2 0
-19 5 -37 10 -18 5 -49 12 -68 14 -35 5 -62 10 -110 20 -14 3 -36 7 -50 10
-14 3 -36 7 -50 10 -14 3 -36 7 -50 10 -14 3 -36 7 -50 10 -14 2 -38 7 -55 10
-16 3 -41 7 -55 10 -14 3 -74 14 -135 25 -60 11 -139 27 -175 35 -36 7 -85 17
-110 20 -24 4 -47 8 -51 11 -4 2 -28 6 -55 9 -26 4 -51 8 -56 11 -4 3 -20 7
-35 9 -32 5 -72 12 -123 22 -19 4 -42 7 -50 8 -8 1 -24 5 -35 8 -11 4 -38 9
-60 13 -22 3 -60 10 -85 15 -25 5 -58 12 -75 15 -16 3 -39 7 -50 9 -11 2 -33
7 -50 10 -16 3 -75 14 -130 25 -55 10 -115 22 -134 25 -19 3 -37 7 -40 9 -3 2
-28 7 -56 10 -27 4 -57 9 -65 11 -8 2 -26 6 -40 9 -14 3 -35 7 -46 10 -12 2
-39 7 -60 10 -22 4 -47 9 -56 12 -10 3 -18 -2 -22 -13z"/>
</g>
</svg>
